<svg width="2000" height="366" viewBox="0 0 2000 366" fill="none" xmlns="http://www.w3.org/2000/svg">
<path d="M308.451 30.0303C308.441 31.1182 308.432 32.1593 308.422 33.2017C308.361 39.5909 308.301 46.0282 308.301 63.5875H339.921V81.0279H363.637V71.3557H403.162V67.4563H426.878V62.9833L434.783 61.0489H490.119L498.024 62.9833C499.318 66.4681 500.613 65.8139 501.917 65.1549C503.241 64.4859 504.575 63.812 505.929 67.4563C511.107 67.7731 516.285 67.9486 521.502 68.1254L521.503 68.1255C526.799 68.305 532.134 68.4858 537.55 68.8171C537.55 54.878 537.609 51.6225 537.668 48.3427C537.728 45.0136 537.789 41.6595 537.789 27.082L537.79 27.082C624.746 21.2787 624.746 21.2787 759.133 19.3443C760.427 37.7185 761.663 41.2703 762.908 44.8485L762.908 44.8493C764.172 48.4811 765.445 52.1413 766.799 71.3557H806.324V65.5524L830.04 59.7492H853.755V82.9623H869.565V77.159H940.711L948.617 90.7H964.427V79.0934H1019.76V84.8967H1043.48V55.2456H1075.1L1074.85 50.7207C1074.58 45.2539 1074.4 39.7871 1074.23 34.3201C1075.64 30.8411 1077.51 30.1525 1091.15 25.1476H1106.96L1109.92 21.8832C1115.34 16.9821 1122.7 12.4205 1130.67 7.7377L1186.01 9.67213L1217.63 27.082L1233.44 29.0164C1233.44 35.0356 1233.38 34.6513 1233.32 34.2642C1233.26 33.8712 1233.2 33.4753 1233.2 39.7702H1280.63V62.9833H1304.35C1305.64 69.9528 1306.94 68.5033 1308.24 67.0428C1309.57 65.5605 1310.9 64.067 1312.25 71.3557L1320.16 65.5524H1335.97V39.7702H1486.17V61.0489H1501.98V108.11H1517.79V71.3557H1573.12V92.6344L1596.84 90.7C1607.86 90.5711 1618.91 90.5349 1629.94 90.5791L1660.08 90.7V100.372L1691.7 98.4377L1699.61 71.3557C1738.71 69.6333 1761.85 69.703 1802.37 71.3557V108.11H1818.18V104.241H1849.8V84.8967L1936.76 86.8312V110.044H2000V365.5H0V110.044L47.4311 77.159V70.7515V32.0324L71.1462 26.2291H134.388C134.388 18.626 134.447 17.4262 134.506 16.2176C134.566 14.9907 134.627 13.7546 134.627 5.80328H182.058V0H253.204V3.86885H308.54C308.54 17.8787 308.499 24.5487 308.451 30.0303Z" fill="black"/>
</svg>
