<svg width="2000" height="366" viewBox="0 0 2000 366" fill="none" xmlns="http://www.w3.org/2000/svg">
<path d="M1691.55 335.929C1691.56 334.839 1691.57 333.797 1691.58 332.753C1691.64 326.355 1691.7 319.909 1691.7 302.326H1660.08V284.861H1636.36V294.547H1596.84V298.451H1573.12V302.931L1565.22 304.868H1509.88L1501.98 302.931C1500.68 299.441 1499.39 300.096 1498.08 300.756C1496.76 301.426 1495.43 302.101 1494.07 298.451C1488.89 298.134 1483.71 297.958 1478.5 297.781C1473.2 297.602 1467.87 297.421 1462.45 297.089C1462.45 311.047 1462.39 314.307 1462.33 317.591C1462.27 320.925 1462.21 324.284 1462.21 338.881C1375.25 344.692 1375.25 344.692 1240.87 346.629C1239.57 328.23 1238.34 324.673 1237.09 321.09C1235.83 317.453 1234.55 313.787 1233.2 294.547H1193.68V300.358L1169.96 306.169H1146.24V282.924H1130.43V288.735H1059.29L1051.38 275.176H1035.57V286.798H980.24V280.987H956.52V310.679H924.9L925.15 315.21C925.42 320.684 925.6 326.158 925.77 331.633C924.36 335.117 922.49 335.806 908.85 340.818H893.04L890.08 344.087C884.66 348.995 877.3 353.563 869.33 358.252L813.99 356.315L782.37 338.881L766.56 336.944C766.56 330.916 766.62 331.301 766.68 331.689C766.74 332.082 766.8 332.479 766.8 326.175H719.37V302.931H695.65C694.36 295.952 693.06 297.403 691.76 298.865C690.43 300.35 689.1 301.845 687.75 294.547L679.84 300.358H664.03V326.175H513.83V304.868H498.02V257.742H482.21V294.547H426.88V273.239L403.16 275.176C392.14 275.305 381.09 275.341 370.06 275.297L339.92 275.176V265.491L308.3 267.428L300.39 294.547C261.29 296.271 238.15 296.202 197.63 294.547V257.742H181.82V261.616H150.2V280.987L63.24 279.05V255.805H0V-2.07424e-05H2000V255.805L1952.57 288.735V295.152V333.924L1928.85 339.735H1865.61C1865.61 347.349 1865.55 348.55 1865.49 349.76C1865.43 350.989 1865.37 352.227 1865.37 360.189H1817.94V366H1746.8V362.126H1691.46C1691.46 348.097 1691.5 341.418 1691.55 335.929Z" fill="black"/>
</svg>
